# AST/ASF file generated using VICON BodyLanguage
# -----------------------------------------------
:version 1.10
:name VICON
:units
  mass 1.0
  length 0.45
  angle deg
:documentation
   .ast/.asf automatically generated from VICON data using
   VICON BodyBuilder and BodyLanguage model FoxedUp or BRILLIANT.MOD
:root
   order TX TY TZ RX RY RZ
   axis XYZ
   position 0 0 0  
   orientation 0 0 0 
:bonedata
  begin
     id 1 
     name lhipjoint
     direction 0.566809 -0.746272 0.349008 
     length 2.40479 
     axis 0 0 0  XYZ
  end
  begin
     id 2 
     name lfemur
     direction 0.34202 -0.939693 0  
     length 7.1578  
     axis 0 0 20  XYZ
    dof rx ry rz
    limits (-160.0 20.0)
           (-70.0 70.0)
           (-60.0 70.0)
  end
  begin
     id 3 
     name ltibia
     direction 0.34202 -0.939693 0   
     length 7.49137   
     axis 0 0 20   XYZ
    dof rx
    limits (-10.0 170.0)
  end
  begin
     id 4 
     name lfoot
     direction 0.0665746 -0.182912 0.980873   
     length 2.36784   
     axis -90 7.62852e-016 20   XYZ
    dof rx rz
    limits (-45.0 90.0)
           (-70.0 20.0)
  end
  begin
     id 5 
     name ltoes
     direction 1.53601e-011 -4.22058e-011 1   
     length 1.18966   
     axis -90 7.62852e-016 20   XYZ
    dof rx
    limits (-90.0 20.0)
  end
  begin
     id 6 
     name rhipjoint
     direction -0.550236 -0.756381 0.353735   
     length 2.37265  
     axis 0 0 0  XYZ 
  end
  begin
     id 7 
     name rfemur
     direction -0.34202 -0.939693 0   
     length 7.43386   
     axis 0 0 -20   XYZ
    dof rx ry rz
    limits (-160.0 20.0)
           (-70.0 70.0)
           (-70.0 60.0)
  end
  begin
     id 8 
     name rtibia
     direction -0.34202 -0.939693 0   
     length 7.50908   
     axis 0 0 -20   XYZ
    dof rx
    limits (-10.0 170.0)
 end
 begin
     id 9 
     name rfoot
     direction -0.0683029 -0.187661 0.979856   
     length 2.41173  
     axis -90 -7.62852e-016 -20   XYZ
    dof rx rz
    limits (-45.0 90.0)
           (-20.0 70.0)
  end
  begin
     id 10 
     name rtoes
     direction -1.53528e-011 -4.21968e-011 1   
     length 1.21082   
     axis -90 -7.62852e-016 -20   XYZ
    dof rx
    limits (-90.0 20.0)
  end
  begin
     id 11 
     name lowerback
     direction 0.013823 0.995423 -0.0945635   
     length 2.04495   
     axis 0 0 0   XYZ
    dof rx ry rz
    limits (-20.0 45.0)
           (-30.0 30.0)
           (-30.0 30.0)
  end
  begin
     id 12 
     name upperback
     direction 0.0276657 0.9994 -0.020853   
     length 2.05008   
     axis 0 0 0   XYZ
    dof rx ry rz
    limits (-20.0 45.0)
           (-30.0 30.0)
           (-30.0 30.0)
  end
  begin
     id 13 
     name thorax
     direction 0.019782 0.999531 0.0233827   
     length 2.06488   
     axis 0 0 0   XYZ
    dof rx ry rz
    limits (-20.0 45.0)
           (-30.0 30.0)
           (-30.0 30.0)
  end
  begin
     id 14 
     name lowerneck
     direction -0.0308541 0.994709 0.0979874   
     length 1.75553   
     axis 0 0 0   XYZ
    dof rx ry rz
    limits (-20.0 45.0)
           (-30.0 30.0)
           (-30.0 30.0)
  end
  begin
     id 15 
     name upperneck
     direction 0.0588398 0.995804 -0.0700903   
     length 1.76878   
     axis 0 0 0   XYZ
    dof rx ry rz
    limits (-20.0 45.0)
           (-30.0 30.0)
           (-30.0 30.0)
  end
  begin
     id 16
     name head
     direction 0.0209966 0.999159 -0.0352225  
     length 1.77193  
     axis 0 0 0   XYZ
    dof rx ry rz
    limits (-20.0 45.0)
           (-30.0 30.0)
           (-30.0 30.0)
  end
  begin
     id 17 
     name lclavicle
     direction 0.938182 0.335073 -0.0868338  
     length 3.58396  
     axis 0 0 0   XYZ
    dof ry rz
    limits (-20.0 10.0)
           (0.0 20.0)
  end
  begin
     id 18 
     name lhumerus
     direction 1 -4.48971e-011 -1.26313e-017   
     length 4.983   
     axis 180 -30 -90   XYZ
    dof rx ry rz
    limits (-60.0 90.0)
           (-90.0 90.0)
           (-90.0 90.0)
  end
  begin
     id 19
     name lradius
     direction 1 -4.48948e-011 -5.89033e-027   
     length 3.48356   
     axis 180 -30 -90   XYZ
    dof rx
    limits (-10.0 170.0)
  end
  begin
     id 20
     name lwrist
     direction 1 -4.48977e-011 -1.48983e-026   
     length 1.74178   
     axis 9.0955e-015 90 90   XYZ
    dof ry
    limits (-180.0 0.0)
 end
  begin
     id 21 
     name lhand
     direction 1 -4.49046e-011 -2.98066e-026   
     length 0.715259   
     axis 1.90115e-014 90 90   XYZ
    dof rx rz
    limits (-90.0 90.0)
           (-45.0 45.0)
  end
  begin
     id 22 
     name lfingers
     direction 1 -4.48907e-011 -5.95731e-026   
     length 0.576661   
     axis 3.80223e-014 90 90   XYZ
    dof rx
    limits (0.0 90.0)
  end
  begin
     id 23
     name lthumb
     direction 0.707107 -6.34963e-011 0.707107   
     length 0.827973   
     axis -90 45 -3.84942e-014   XYZ
    dof rx rz
    limits (-45.0 45.0)
           (-45.0 45.0)
  end
  begin
     id 24 
     name rclavicle
     direction -0.909637 0.398485 -0.11735   
     length 3.44819  
     axis 0 0 0   XYZ 
    dof ry rz
    limits (-10.0 20.0)
           (-20.0 0.0)
  end
  begin
     id 25 
     name rhumerus
     direction -1 -4.48978e-011 -1.09333e-027  
     length 5.2419   
     axis 180 30 90   XYZ
    dof rx ry rz
    limits (-90.0 60.0)
           (-90.0 90.0)
           (-90.0 90.0)
  end
  begin
     id 26 
     name rradius
     direction -1 -4.48953e-011 -7.61841e-027   
     length 3.44417   
     axis 180 30 90   XYZ
    dof rx
    limits (-10.0 170.0)
  end
  begin
     id 27 
     name rwrist
     direction -1 -4.48977e-011 -1.48983e-026   
     length 1.72209   
     axis 9.0955e-015 -90 -90   XYZ
    dof ry
    limits (-180.0 0.0)
  end
  begin
     id 28
     name rhand
     direction -1 -4.49027e-011 -2.98038e-026   
     length 0.622529   
     axis 1.90115e-014 -90 -90   XYZ
    dof rx rz
    limits (-90.0 90.0)
           (-45.0 45.0)
  end
  begin
     id 29
     name rfingers
     direction -1 -4.48838e-011 -5.95531e-026   
     length 0.501899   
     axis 3.80223e-014 -90 -90   XYZ
    dof rx
    limits (0.0 90.0)
  end
  begin
     id 30
     name rthumb
     direction -0.707107 -6.34937e-011 0.707107   
     length 0.720629   
     axis -90 -45 3.84942e-014   XYZ
    dof rx rz
    limits (-45.0 45.0)
           (-45.0 45.0)
  end
:hierarchy
  begin
    root lhipjoint rhipjoint lowerback
    lhipjoint lfemur
    lfemur ltibia
    ltibia lfoot
    lfoot ltoes
    rhipjoint rfemur
    rfemur rtibia
    rtibia rfoot
    rfoot rtoes
    lowerback upperback
    upperback thorax
    thorax lowerneck lclavicle rclavicle
    lowerneck upperneck
    upperneck head
    lclavicle lhumerus
    lhumerus lradius
    lradius lwrist
    lwrist lhand lthumb
    lhand lfingers
    rclavicle rhumerus
    rhumerus rradius
    rradius rwrist
    rwrist rhand rthumb
    rhand rfingers
  end

#!OML:ASF H:\Terrain\Patient Classification 1\PLAYGROUND\JustinFriday\JustinFriday.ASF
:FULLY-SPECIFIED
:DEGREES
84
root 1.34561 17.3919 13.7106 80.4244 -76.2191 -77.7286
lowerback 10.9224 0.638408 5.6168
upperback 3.23324 1.35801 1.00948
thorax -2.62937 0.612156 -2.28256
lowerneck 2.94954 -13.2112 -14.6698
upperneck 2.29645 -18.2285 10.1984
head 2.47414 -9.19456 4.73606
rclavicle 1.35174e-014 -1.11319e-014
rhumerus -23.4635 -0.297301 -75.3529
rradius 45.5539
rwrist -18.0177
rhand -18.4381 -25.475
rfingers 7.12502
rthumb 7.84752 -55.3094
lclavicle 1.35174e-014 -1.11319e-014
lhumerus -30.4129 13.6329 75.5695
lradius 31.2727
lwrist 2.68458
lhand -18.1612 -4.19995
lfingers 7.12502
lthumb 8.11478 25.6242
rfemur -0.596846 -1.40265 38.1463
rtibia 22.919
rfoot -20.941 -11.406
rtoes 14.5828
lfemur -32.4104 1.8703 4.48156
ltibia 40.6272
lfoot -8.79994 -0.630611
ltoes 9.83002
85
root 1.21186 17.3824 13.7379 79.9299 -76.3216 -77.2072
lowerback 10.8601 0.655563 5.51091
upperback 3.27626 1.36065 0.908191
thorax -2.55038 0.617092 -2.3273
lowerneck 2.83302 -13.3467 -14.4418
upperneck 2.60637 -18.399 10.0131
head 2.56781 -9.27729 4.61886
rclavicle -5.56597e-015 -6.36111e-015
rhumerus -23.3608 0.208767 -75.4642
rradius 45.8597
rwrist -18.1319
rhand -18.8644 -25.2883
rfingers 7.12502
rthumb 7.43603 -55.1376
lclavicle -5.56597e-015 -6.36111e-015
lhumerus -30.6158 14.8779 75.193
lradius 31.5015
lwrist 1.85137
lhand -17.8598 -4.34578
lfingers 7.12502
lthumb 8.40564 25.467
rfemur 0.0338061 -1.53407 37.9478
rtibia 22.607
rfoot -21.1713 -11.6717
rtoes 13.677
lfemur -32.5473 1.33209 4.51877
ltibia 38.4945
lfoot -9.08537 -0.148191
ltoes 10.091
86
root 1.07372 17.3806 13.7716 79.9525 -76.6842 -77.0697
lowerback 10.6627 0.764087 5.47145
upperback 3.25426 1.48409 0.606779
thorax -2.44796 0.684388 -2.63031
lowerneck 3.21823 -13.2841 -14.3058
upperneck 2.55048 -18.3751 10.2822
head 2.50112 -9.27429 4.71197
rclavicle 7.15625e-015 1.43125e-014
rhumerus -23.5536 0.606009 -75.6036
rradius 46.4233
rwrist -18.1735
rhand -19.4827 -25.4641
rfingers 7.12502
rthumb 6.83923 -55.3337
lclavicle 7.15625e-015 1.43125e-014
lhumerus -30.842 15.3916 74.9124
lradius 31.8479
lwrist 1.38556
lhand -17.711 -4.3758
lfingers 7.12502
lthumb 8.54928 25.4311
rfemur 0.600473 -1.55563 37.4193
rtibia 22.2158
rfoot -21.5342 -11.432
rtoes 14.3069
lfemur -32.7323 0.493231 4.36892
ltibia 36.4852
lfoot -9.83804 0.672749
ltoes 9.27176
87
root 0.933428 17.3731 13.8076 80.4502 -76.8683 -77.5045
lowerback 10.5586 0.926653 5.57844
upperback 3.2613 1.69938 0.429603
thorax -2.3558 0.795444 -2.89796
lowerneck 3.6597 -13.3402 -14.491
upperneck 2.3472 -18.5169 10.6195
head 2.43707 -9.35687 4.8611
rclavicle 1.82882e-014 1.59028e-014
rhumerus -23.7585 0.74049 -75.5987
rradius 46.8238
rwrist -18.126
rhand -19.2953 -25.0201
rfingers 7.12502
rthumb 7.02013 -54.8837
lclavicle 1.82882e-014 1.59028e-014
lhumerus -30.9099 15.2895 74.9249
lradius 32.0262
lwrist 1.51176
lhand -17.7763 -4.43289
lfingers 7.12502
lthumb 8.48625 25.3766
rfemur 1.2686 -1.49468 37.1099
rtibia 21.8222
rfoot -21.6801 -11.5013
rtoes 13.957
lfemur -32.8205 -0.597817 4.5485
ltibia 34.6364
lfoot -11.0111 1.71468
ltoes 9.85846
88
root 0.796562 17.3482 13.8441 81.1661 -76.6594 -78.217
lowerback 10.512 1.02518 5.96701
upperback 3.30045 1.86198 0.404251
thorax -2.25906 0.879295 -3.1595
lowerneck 3.96448 -13.4996 -14.6717
upperneck 2.22491 -18.7707 10.7056
head 2.40861 -9.4918 4.91479
rclavicle 2.38542e-015 1.74931e-014
rhumerus -23.6794 0.724322 -75.5724
rradius 46.7405
rwrist -18.0426
rhand -18.5439 -23.6641
rfingers 7.12502
rthumb 7.74537 -53.5022
lclavicle 2.38542e-015 1.74931e-014
lhumerus -30.9938 15.2718 74.8778
lradius 32.2285
lwrist 1.67403
lhand -17.6193 -4.54053
lfingers 7.12502
lthumb 8.6377 25.2628
rfemur 2.0136 -1.35468 37.2817
rtibia 21.3649
rfoot -21.5959 -12.0265
rtoes 12.218
lfemur -32.9683 -1.29983 5.09107
ltibia 33.0388
lfoot -12.0605 2.47797
ltoes 9.13536
89
root 0.657892 17.3229 13.8816 81.6719 -76.6076 -78.6466
lowerback 10.3508 1.06068 6.15487
upperback 3.34127 1.91312 0.357795
thorax -2.11383 0.910467 -3.31375
lowerneck 4.2364 -13.5024 -14.9962
upperneck 2.19513 -18.8342 11.0152
head 2.42517 -9.53347 5.06091
rclavicle -1.78906e-014 6.36111e-015
rhumerus -23.4819 1.23202 -75.6175
rradius 46.8229
rwrist -18.0401
rhand -18.3186 -23.4026
rfingers 7.12502
rthumb 7.96289 -53.2327
lclavicle -1.78906e-014 6.36111e-015
lhumerus -31.1663 15.3816 74.8246
lradius 32.5218
lwrist 1.98162
lhand -17.5913 -4.47688
lfingers 7.12502
lthumb 8.66475 25.3253
rfemur 2.80235 -1.11727 37.3055
rtibia 20.7059
rfoot -21.4956 -12.5341
rtoes 10.692
lfemur -33.3163 -1.68677 5.3445
ltibia 31.8005
lfoot -12.7455 3.05708
ltoes 5.91744
90
root 0.504655 17.3071 13.9104 82.4109 -76.5948 -79.3958
lowerback 10.1019 1.17766 6.01494
upperback 3.42478 2.0333 0.42901
thorax -1.88606 0.977744 -3.16512
lowerneck 4.66511 -13.4552 -15.3753
upperneck 2.02265 -18.8497 11.3817
head 2.37917 -9.55581 5.2526
rclavicle -1.59028e-014 -2.8625e-014
rhumerus -23.3923 1.87958 -75.5968
rradius 47.181
rwrist -17.7009
rhand -17.9709 -24.094
rfingers 7.12502
rthumb 8.29841 -53.911
lclavicle -1.59028e-014 -2.8625e-014
lhumerus -31.3588 15.6588 74.8956
lradius 32.6981
lwrist 1.99871
lhand -17.8363 -4.52197
lfingers 7.12502
lthumb 8.42827 25.2899
rfemur 3.73147 -0.906559 37.3035
rtibia 19.9965
rfoot -21.3429 -12.9078
rtoes 9.43392
lfemur -33.6365 -2.0362 5.62236
ltibia 30.8766
lfoot -13.3251 3.42536
ltoes 3.10619
91
root 0.360763 17.2974 13.9641 83.0344 -76.2962 -79.9383
lowerback 9.95964 1.22052 6.53058
upperback 3.40333 2.1316 0.508819
thorax -1.80163 1.03 -3.37729
lowerneck 5.19867 -13.5116 -15.3621
upperneck 1.62532 -18.9577 11.1059
head 2.16173 -9.61991 5.22008
rclavicle -1.90833e-014 1.43125e-014
rhumerus -23.3922 2.32516 -75.5413
rradius 47.3201
rwrist -17.3287
rhand -17.8868 -24.4866
rfingers 7.12502
rthumb 8.37956 -54.3004
lclavicle -1.90833e-014 1.43125e-014
lhumerus -31.7369 15.8316 75.0029
lradius 33.0087
lwrist 1.95679
lhand -17.7809 -4.82972
lfingers 7.12502
lthumb 8.48174 24.98
rfemur 4.52761 -1.23934 37.3516
rtibia 19.3247
rfoot -21.3529 -12.5403
rtoes 9.02897
lfemur -34.1148 -1.82523 5.89834
ltibia 30.1759
lfoot -13.8027 3.11594
ltoes 1.70281
92
root 0.22025 17.2851 14.005 84.254 -76.3153 -80.9869
lowerback 9.83681 1.32351 6.60098
upperback 3.33693 2.27048 0.482344
thorax -1.78455 1.0999 -3.45592
lowerneck 5.0945 -13.5623 -14.9894
upperneck 2.01757 -19.0049 10.7602
head 2.23243 -9.64017 5.04732
rclavicle -5.56597e-015 -4.45278e-014
rhumerus -23.1191 2.99684 -75.5778
rradius 47.0149
rwrist -17.3596
rhand -18.1825 -24.4023
rfingers 7.12502
rthumb 8.09417 -54.2273
lclavicle -5.56597e-015 -4.45278e-014
lhumerus -32.2454 15.7866 75.0546
lradius 33.5831
lwrist 2.33288
lhand -17.8569 -4.99889
lfingers 7.12502
lthumb 8.40843 24.8137
rfemur 5.2297 -0.568141 37.3204
rtibia 18.7069
rfoot -21.4579 -12.7586
rtoes 9.74138
lfemur -34.5512 -1.36707 5.82215
ltibia 29.6538
lfoot -14.0858 2.52298
ltoes 1.4217
